HIERARCHY
ROOT RootJoint
{
    OFFSET   0.000000   0.000000   0.000000
    CHANNELS 6 Xposition Yposition Zposition Xrotation Yrotation Zrotation
    JOINT pelvis_lowerback
    {
        OFFSET   0.000000   0.093605   0.000000
        CHANNELS 3 Xrotation Yrotation Zrotation
        JOINT lowerback_torso
        {
            OFFSET   0.000000   0.100000   0.000000
            CHANNELS 3 Xrotation Yrotation Zrotation
            JOINT torso_head
            {
                OFFSET   0.000000   0.282350   0.000000
                CHANNELS 3 Xrotation Yrotation Zrotation
                End Site
                {
                    OFFSET   0.000000   0.192650   0.000000
                }
            }
            JOINT rTorso_Clavicle
            {
                OFFSET  -0.001000   0.157500   0.000000
                CHANNELS 3 Xrotation Yrotation Zrotation
                JOINT rShoulder
                {
                    OFFSET  -0.117647   0.000000   0.000000
                    CHANNELS 3 Xrotation Yrotation Zrotation
                    JOINT rElbow
                    {
                        OFFSET  -0.245000   0.000000   0.000000
                        CHANNELS 3 Xrotation Yrotation Zrotation
                        JOINT rWrist
                        {
                            OFFSET  -0.240000   0.000000   0.000000
                            CHANNELS 3 Xrotation Yrotation Zrotation
                            End Site
                            {
                                OFFSET  -0.116353  -0.002500   0.000000
                            }
                        }
                    }
                }
            }
            JOINT lTorso_Clavicle
            {
                OFFSET   0.001000   0.157500   0.000000
                CHANNELS 3 Xrotation Yrotation Zrotation
                JOINT lShoulder
                {
                    OFFSET   0.117647   0.000000   0.000000
                    CHANNELS 3 Xrotation Yrotation Zrotation
                    JOINT lElbow
                    {
                        OFFSET   0.245000   0.000000   0.000000
                        CHANNELS 3 Xrotation Yrotation Zrotation
                        JOINT lWrist
                        {
                            OFFSET   0.240000   0.000000   0.000000
                            CHANNELS 3 Xrotation Yrotation Zrotation
                            End Site
                            {
                                OFFSET   0.116353  -0.002500   0.000000
                            }
                        }
                    }
                }
            }
        }
    }
    JOINT rHip
    {
        OFFSET  -0.100000  -0.051395   0.000000
        CHANNELS 3 Xrotation Yrotation Zrotation
        JOINT rKnee
        {
            OFFSET   0.000000  -0.410000   0.000000
            CHANNELS 3 Xrotation Yrotation Zrotation
            JOINT rAnkle
            {
                OFFSET   0.000000  -0.390000   0.000000
                CHANNELS 3 Xrotation Yrotation Zrotation
                JOINT rToeJoint
                {
                    OFFSET   0.000000  -0.050000   0.130000
                    CHANNELS 3 Xrotation Yrotation Zrotation
                    End Site
                    {
                        OFFSET  -0.010000   0.002000   0.060000
                    }
                }
            }
        }
    }
    JOINT lHip
    {
        OFFSET   0.100000  -0.051395   0.000000
        CHANNELS 3 Xrotation Yrotation Zrotation
        JOINT lKnee
        {
            OFFSET   0.000000  -0.410000   0.000000
            CHANNELS 3 Xrotation Yrotation Zrotation
            JOINT lAnkle
            {
                OFFSET   0.000000  -0.390000   0.000000
                CHANNELS 3 Xrotation Yrotation Zrotation
                JOINT lToeJoint
                {
                    OFFSET   0.000000  -0.050000   0.130000
                    CHANNELS 3 Xrotation Yrotation Zrotation
                    End Site
                    {
                        OFFSET   0.010000   0.002000   0.060000
                    }
                }
            }
        }
    }
}
MOTION
Frames: 12
Frame Time:   0.008333
 -2.376719   0.925631   3.975860   0.000000   0.000000   0.000000   0.000000   0.000000   0.000000   0.000000   0.000000   0.000000   0.000000   0.000000   0.000000   0.000000   0.000000   0.000000   0.000000   0.000000   0.000000   0.000000   0.000000   0.000000   0.000000   0.000000   0.000000   0.000000   0.000000   0.000000   0.000000   0.000000   0.000000   0.000000   0.000000   0.000000   0.000000   0.000000   0.000000   0.000000   0.000000   0.000000   0.000000   0.000000   0.000000   0.000000   0.000000   0.000000   0.000000   0.000000   0.000000   0.000000   0.000000   0.000000   0.000000   0.000000   0.000000   0.000000   0.000000   0.000000   0.000000   0.000000   0.000000
 -2.376784   0.926100   3.975126   0.131263   0.001128  -0.143824  -0.039939  -0.049876   0.133868   0.108643  -0.089404   0.044726  -0.302228   0.149422  -0.003117   0.198054  -0.185365   0.171257   1.027870   0.334564   2.100889   0.013165   0.649692  -0.008154   0.369133  -0.409928  -2.453898   0.260335   0.242092  -0.396481   1.664957  -0.093181  -1.888375   0.011025  -0.558280   0.010405   0.430089   0.260896   2.351637  -0.513030   0.297178   0.095016   0.769338   0.000348   0.002008  -0.253642   0.132298  -0.044499  -0.176005  -0.000143  -0.000664  -0.502609   0.017181   0.250751   0.886229  -0.000825   0.000160  -0.668844   0.202450   0.044665   0.370661  -0.000487   0.000719
 -2.376888   0.926907   3.974182   0.213227   0.001604  -0.304329  -0.010162  -0.116988   0.270331   0.275633  -0.186707   0.104190  -0.589094   0.290465   0.000864   0.393171  -0.289097   1.018231   2.025132   0.767812   4.739952   0.030605   1.291936  -0.014855   0.773276  -0.605912  -4.195216   0.525040   0.401318  -1.459213   3.304552  -0.293941  -4.325513   0.025534  -1.102585   0.018798   0.913684   0.385663   4.001678  -1.027133   0.592824   0.151036   1.549313   0.001079   0.003625  -0.487540   0.260713  -0.084158  -0.346631  -0.000332  -0.001168  -0.973071   0.034405   0.590543   1.797881  -0.002078   0.000357  -1.291413   0.395216   0.090392   0.696429  -0.001018   0.001197
 -2.377001   0.927674   3.973154   0.280952  -0.005214  -0.459336   0.054440  -0.188825   0.397642   0.463573  -0.285907   0.163330  -0.853282   0.421673   0.006355   0.573910  -0.323821   2.282828   2.980741   1.290323   7.726519   0.048018   1.907111  -0.019812   1.169498  -0.677947  -5.167296   0.773614   0.479087  -2.923354   4.906235  -0.619556  -7.115430   0.040120  -1.625935   0.025184   1.385926   0.401278   4.890189  -1.539507   0.869999   0.151299   2.272426   0.001978   0.004590  -0.706701   0.380536  -0.120809  -0.511120  -0.000548  -0.001501  -1.410144   0.048596   0.977874   2.656162  -0.003389   0.000503  -1.872697   0.575768   0.135814   0.989940  -0.001509   0.001480
 -2.377112   0.928130   3.972127   0.347008  -0.023084  -0.605122   0.139456  -0.262719   0.515572   0.655323  -0.385539   0.218880  -1.097678   0.544044   0.011917   0.738177  -0.307206   3.785264   3.891506   1.896913  10.942817   0.063416   2.493688  -0.023265   1.557305  -0.659290  -5.578862   1.001122   0.492693  -4.610852   6.467461  -1.072502 -10.135455   0.053183  -2.129402   0.029945   1.847240   0.314813   5.227586  -2.047922   1.129331   0.100971   2.934934   0.002878   0.005027  -0.912573   0.491981  -0.154862  -0.669817  -0.000770  -0.001695  -1.816411   0.059188   1.396467   3.455241  -0.004597   0.000579  -2.416280   0.744573   0.180523   1.252107  -0.001915   0.001609
 -2.377219   0.928074   3.971170   0.416281  -0.055082  -0.741405   0.234512  -0.337737   0.624883   0.841383  -0.484949   0.270425  -1.323540   0.658251   0.017332   0.884169  -0.255804   5.406216   4.753946   2.578651  14.309122   0.075919   3.050649  -0.025435   1.935865  -0.573833  -5.617399   1.203905   0.459796  -6.404097   7.983997  -1.646822 -13.301898   0.063967  -2.612400   0.033364   2.297529   0.142589   5.202406  -2.547642   1.372480   0.008686   3.541994   0.003684   0.005072  -1.105834   0.595614  -0.186548  -0.821499  -0.000976  -0.001777  -2.191615   0.066222   1.836246   4.199271  -0.005632   0.000581  -2.924579   0.902278   0.224256   1.486724  -0.002225   0.001623
 -2.377366   0.927346   3.970329   0.490178  -0.101547  -0.865478   0.331748  -0.412542   0.718805   1.016366  -0.582714   0.302768  -1.532004   0.764649   0.026961   1.012047  -0.185916   7.075043   5.565311   3.324241  17.778010   0.085240   3.576767  -0.026529   2.302713  -0.444379  -5.409895   1.382342   0.398719  -8.277786   9.368510  -2.298141 -16.407364   0.071938  -3.075141   0.035326   2.737088  -0.106635   4.867898  -3.033735   1.600837  -0.116104   4.099883   0.004328   0.004854  -1.287114   0.691918  -0.216113  -0.965694  -0.001149  -0.001773  -2.535387   0.069882   2.290450   4.893756  -0.006493   0.000524  -3.399738   1.049467   0.266752   1.697348  -0.002447   0.001559
 -2.377483   0.925263   3.969416   0.541620  -0.072050  -0.989677   0.506561  -0.429553   0.839336   1.173185  -0.701625   0.313341  -1.836856   0.756314  -0.005490   1.197730  -0.008510   8.239458   6.456961   3.988391  21.014558   0.086695   4.033741  -0.027537   2.687695  -0.160363  -4.171924   1.542833   0.276133  -9.458474  10.538901  -3.114642 -19.471685   0.076946  -3.574774   0.036951   3.159839  -0.530682   3.571528  -3.501489   1.620280  -0.221269   4.868338   0.005152   0.004074  -1.498042   0.739395  -0.046690  -1.009895  -0.000944  -0.001456  -2.864816   0.127640   2.707240   5.333744  -0.006277   0.000973  -3.644219   1.225511   0.313301   1.840411  -0.002362   0.001629
 -2.377585   0.922020   3.968558   0.593979   0.021442  -1.109695   0.686152  -0.449651   0.959468   1.322995  -0.826801   0.327909  -2.124912   0.746532  -0.040839   1.362532   0.167041   9.158542   7.255881   4.646389  23.917415   0.084448   4.457917  -0.027611   3.059395   0.119740  -2.999532   1.672268   0.132707 -10.377766  11.585565  -3.942069 -22.197882   0.077710  -4.052258   0.037256   3.563248  -1.035139   2.362531  -3.900876   1.628777  -0.310718   5.627106   0.005643   0.003784  -1.691549   0.781537   0.111534  -1.037294  -0.000768  -0.001198  -3.231609   0.182128   3.084868   5.695319  -0.005786   0.001433  -3.872874   1.390496   0.357648   1.981673  -0.002238   0.001747
 -2.377478   0.921223   3.967897   0.603849  -0.029253  -0.718900   0.888619  -0.403017   0.680766   1.483593  -0.899379   0.171866  -2.394915   0.739852  -0.088859   1.498427   0.363822  10.156160   7.957873   5.320206  26.648491   0.081297   4.858099  -0.027002   3.411793   0.381705  -2.045545   1.784834   0.000762 -11.286501  12.525261  -4.749377 -24.688853   0.076300  -4.489879   0.036456   3.938373  -1.468593   1.431829  -4.194103   1.660224  -0.849168   6.349087   0.005532   0.002544  -1.861850   0.819165   0.257036  -0.989353  -0.000611  -0.000969  -3.675078   0.181648   2.678410   6.436418  -0.004513   0.000866  -3.775103   1.436691   0.206233   0.492925  -0.003917   0.001490
 -2.377740   0.920928   3.967346   0.636780  -0.164505  -0.566781   1.065652  -0.331251   0.643720   1.627419  -0.937214   0.080348  -2.642299   0.734607  -0.140453   1.613734   0.553376  10.967949   8.581114   5.981321  29.144377   0.076913   5.237305  -0.025840   3.746552   0.669627  -1.134593   1.893723  -0.101928 -12.081618  13.372863  -5.531712 -27.009433   0.073067  -4.900055   0.034993   4.289471  -1.898985   0.516172  -4.528421   1.684095  -0.987157   6.874439   0.004405   0.001405  -2.198143   0.862003   0.448886  -0.949232  -0.000557  -0.000805  -4.020914   0.211268   2.542870   7.013020  -0.003692   0.000236  -3.909826   1.532763   0.170774   0.319794  -0.003171   0.001186
 -2.378171   0.920724   3.966906   0.676265  -0.310194  -0.481398   1.229470  -0.265645   0.662903   1.759945  -0.967746   0.031422  -2.872068   0.729347  -0.180193   1.716889   0.722381  11.638291   9.139441   6.612198  31.418122   0.071573   5.590158  -0.024262   4.062494   0.948463  -0.332301   1.998125  -0.182890 -12.753927  14.141089  -6.276865 -29.132039   0.068439  -5.279442   0.033010   4.618212  -2.303351  -0.323158  -4.872353   1.677176  -1.030350   7.399232   0.003348   0.000352  -2.429178   0.869264   0.582127  -0.997635  -0.000376  -0.000578  -4.316100   0.244163   2.487256   7.495898  -0.003083  -0.000219  -4.040182   1.635056   0.166849   0.190787  -0.002514   0.000945
